P3
38 36
255
255 255 255 255 255 255 255 255 255 255 255 255 255 255 255 255 255 255 255 255 255 255 255 255 255 255 255 255 255 255 255 255 255 255 255 255 255 255 255 255 255 255 255 255 255 255 255 255 255 255 255 255 255 255 255 255 255 255 255 255 255 255 255 255 255 255 255 255 255 255 255 255 255 255 255 255 255 255 255 255 255 255 255 255 255 255 255 255 255 255 255 255 255 255 255 255 255 255 255 255 255 255 255 255 255 255 255 255 255 255 255 255 255 255 
255 255 255 255 255 255 255 255 255 255 255 255 255 255 255 255 255 255 255 255 255 255 255 255 255 255 255 255 255 255 255 255 255 255 255 255 255 255 255 255 255 255 11 8 8 0 0 0 9 20 27 0 12 11 24 7 6 9 13 1 11 0 0 13 0 3 13 0 19 17 0 4 24 15 0 36 2 0 18 0 0 16 2 0 0 5 6 0 11 19 24 8 2 20 7 23 26 0 0 24 11 0 18 0 0 12 19 23 6 0 2 255 255 255 
255 255 255 255 255 255 0 0 0 0 0 0 0 0 0 0 0 0 0 0 0 0 0 0 0 0 0 0 0 0 0 0 0 0 0 0 0 0 0 255 255 255 19 16 20 34 24 26 0 16 8 0 3 0 33 11 26 35 18 10 46 35 3 52 33 1 71 21 5 69 10 21 29 4 0 18 0 0 6 0 0 12 2 0 30 0 0 25 0 8 36 0 0 38 0 9 37 11 20 20 10 27 43 21 20 11 3 10 12 17 7 255 255 255 
255 255 255 255 255 255 0 0 0 18 18 18 72 72 72 0 0 0 24 24 24 0 0 0 0 0 0 0 0 0 0 0 0 0 0 0 0 0 0 255 255 255 36 33 44 24 17 21 10 14 0 7 4 0 11 0 0 0 0 0 2 3 2 0 0 0 25 0 0 0 0 5 56 0 13 48 0 21 32 0 23 30 2 18 73 5 10 77 10 3 66 11 0 59 8 0 0 3 0 0 0 0 73 19 2 0 0 0 0 0 8 255 255 255 
255 255 255 255 255 255 0 0 0 0 0 0 0 0 0 0 0 0 0 0 0 120 120 120 19 19 19 0 0 0 116 116 116 15 15 15 0 0 0 255 255 255 20 18 31 0 0 0 0 0 0 0 4 0 63 9 39 157 81 70 164 166 134 255 249 194 255 255 182 255 255 160 255 255 147 255 255 149 255 255 154 255 255 161 255 255 166 255 255 168 255 255 172 255 255 183 255 255 196 159 187 136 224 141 73 92 40 6 17 45 30 255 255 255 
255 255 255 255 255 255 0 0 0 0 0 0 81 81 81 108 108 108 0 0 0 0 0 0 4 4 4 0 0 0 0 0 0 0 0 0 0 0 0 255 255 255 24 27 35 20 31 24 23 36 0 18 23 9 84 15 19 159 113 123 0 0 0 0 0 0 0 0 0 0 0 0 0 0 0 0 0 0 0 0 0 0 0 0 0 0 0 0 0 0 0 0 0 0 0 0 0 0 0 0 0 0 96 37 123 15 0 0 10 17 30 255 255 255 
255 255 255 255 255 255 0 0 0 0 0 0 0 0 0 0 0 0 0 0 0 9 9 9 0 0 0 12 12 12 0 0 0 35 35 35 0 0 0 255 255 255 3 9 11 0 0 0 0 0 0 11 0 24 116 3 5 255 255 174 0 0 0 0 0 0 0 0 30 0 46 84 0 17 65 0 24 63 0 61 60 0 61 60 19 0 50 19 0 52 0 54 71 0 59 71 0 46 35 0 0 0 255 255 179 120 16 7 10 24 34 255 255 255 
255 255 255 255 255 255 0 0 0 0 0 0 90 90 90 0 0 0 85 85 85 0 0 0 0 0 0 59 59 59 0 0 0 0 0 0 0 0 0 255 255 255 5 14 11 3 14 9 2 4 17 14 6 10 68 0 0 255 255 164 0 0 0 0 124 108 0 32 82 0 0 31 0 0 53 0 0 45 0 36 42 0 43 46 0 0 25 2 0 27 0 35 47 0 49 50 0 0 0 0 0 0 255 249 164 92 0 6 0 13 44 255 255 255 
255 255 255 255 255 255 0 0 0 14 14 14 0 0 0 0 0 0 0 0 0 0 0 0 0 0 0 0 0 0 0 0 0 45 45 45 0 0 0 255 255 255 11 17 14 1 0 0 1 0 13 14 6 10 68 0 0 255 255 164 0 0 0 0 124 108 0 32 82 0 0 31 0 0 53 0 0 45 0 36 42 0 43 46 0 0 25 2 0 27 0 35 47 0 49 50 0 0 0 0 0 0 255 249 164 92 0 6 0 13 44 255 255 255 
255 255 255 255 255 255 0 0 0 26 26 26 0 0 0 0 0 0 49 49 49 45 45 45 23 23 23 0 0 0 45 45 45 19 19 19 0 0 0 255 255 255 16 20 22 1 11 25 0 0 0 11 0 24 116 3 5 255 255 174 0 0 0 0 0 0 0 0 30 0 46 84 0 17 65 0 24 63 0 61 60 0 61 60 19 0 50 19 0 52 0 54 71 0 59 71 0 46 35 0 0 0 255 255 179 120 16 7 10 24 34 255 255 255 
255 255 255 255 255 255 0 0 0 0 0 0 0 0 0 0 0 0 0 0 0 0 0 0 0 0 0 0 0 0 0 0 0 0 0 0 0 0 0 255 255 255 31 31 39 21 29 22 22 32 0 18 23 9 84 15 19 159 113 123 0 0 0 0 0 0 0 0 0 0 0 0 0 0 0 0 0 0 0 0 0 0 0 0 0 0 0 0 0 0 0 0 0 0 0 0 0 0 0 0 0 0 96 37 123 15 0 0 10 17 30 255 255 255 
255 255 255 255 255 255 0 0 0 24 24 24 26 26 26 64 64 64 0 0 0 0 0 0 0 0 0 76 76 76 0 0 0 0 0 0 0 0 0 255 255 255 9 7 20 0 0 0 0 0 0 0 4 0 63 9 39 157 81 70 164 166 134 255 249 194 255 255 182 255 255 160 255 255 147 255 255 149 255 255 154 255 255 161 255 255 166 255 255 168 255 255 172 255 255 183 255 255 196 159 187 136 224 141 73 92 40 6 17 45 30 255 255 255 
255 255 255 255 255 255 0 0 0 0 0 0 0 0 0 0 0 0 0 0 0 0 0 0 0 0 0 0 0 0 0 0 0 0 0 0 0 0 0 255 255 255 61 57 69 53 45 50 30 33 6 7 4 0 11 0 0 0 0 0 2 3 2 0 0 0 25 0 0 0 0 5 56 0 13 48 0 21 32 0 23 30 2 18 73 5 10 77 10 3 66 11 0 59 8 0 0 3 0 0 0 0 73 19 2 0 0 0 0 0 8 255 255 255 
255 255 255 255 255 255 255 255 255 255 255 255 255 255 255 255 255 255 255 255 255 255 255 255 255 255 255 255 255 255 255 255 255 255 255 255 255 255 255 255 255 255 0 0 0 0 0 0 0 19 14 0 3 0 33 11 26 35 18 10 46 35 3 52 33 1 71 21 5 69 10 21 29 4 0 18 0 0 6 0 0 12 2 0 30 0 0 25 0 8 36 0 0 38 0 9 37 11 20 20 10 27 43 21 20 11 3 10 12 17 7 255 255 255 
255 255 255 56 54 56 25 25 31 34 36 43 0 0 0 0 0 0 0 0 0 37 25 30 43 31 32 0 0 0 36 32 28 0 0 0 42 42 46 0 0 0 81 71 73 60 47 51 27 44 48 0 17 11 18 12 6 7 15 3 11 0 0 13 0 5 13 0 17 17 0 0 24 12 0 39 0 0 24 0 0 23 2 0 0 5 0 0 12 15 23 8 2 19 6 18 26 0 0 27 9 0 21 0 0 13 21 18 3 2 0 255 255 255 
255 255 255 0 0 0 21 22 15 0 0 0 17 14 30 30 22 30 16 14 5 17 7 0 0 0 24 24 16 9 0 0 18 18 17 17 37 38 32 2 0 0 37 43 48 0 0 0 31 35 15 0 0 0 7 0 0 0 35 10 0 0 0 0 12 12 0 0 1 4 0 0 14 14 0 33 0 0 25 0 0 11 0 0 0 0 0 0 3 0 16 0 2 1 1 18 15 0 0 20 11 0 0 0 0 0 12 24 17 15 7 255 255 255 
255 255 255 12 19 48 13 0 0 3 0 0 11 0 42 0 0 14 0 13 0 0 8 0 0 12 25 0 22 0 8 23 2 11 7 22 0 1 0 6 10 0 0 22 37 16 27 15 42 21 21 8 0 6 7 14 6 0 0 9 0 0 0 7 19 21 14 12 30 25 23 27 3 15 16 0 0 5 0 0 14 0 0 2 0 0 6 0 4 9 15 1 2 9 0 9 27 30 24 0 0 0 44 41 32 0 0 0 25 10 7 255 255 255 
255 255 255 11 24 77 7 18 0 1 32 0 9 0 76 7 0 33 0 22 0 0 8 0 0 0 21 0 0 0 9 0 4 6 0 18 3 0 0 21 9 0 0 0 32 0 8 2 47 14 6 0 0 0 29 1 6 21 6 7 20 12 7 31 18 23 0 0 0 0 0 0 0 7 27 0 0 24 0 2 20 0 6 14 0 12 7 2 21 2 9 9 0 14 4 0 0 19 8 0 0 8 37 36 17 10 7 10 30 23 11 255 255 255 
255 255 255 24 18 107 3 0 0 0 0 6 2 0 200 10 0 176 27 16 130 22 11 176 26 0 127 38 0 112 14 0 137 2 0 170 0 6 75 11 12 24 5 0 52 0 3 13 0 22 8 0 30 8 21 36 16 10 23 17 25 20 19 21 25 31 0 0 0 11 19 25 0 5 0 0 2 0 0 6 0 0 0 0 3 0 1 13 0 0 3 0 0 13 0 0 0 20 8 0 0 0 0 5 15 0 0 0 0 0 11 255 255 255 
255 255 255 33 49 153 26 54 34 31 89 101 31 93 255 35 84 255 55 76 255 60 62 255 54 37 255 34 64 255 23 52 255 15 18 148 10 18 84 6 26 55 31 2 84 0 0 38 0 0 0 0 0 9 0 2 23 0 0 0 0 2 0 0 3 22 2 15 2 16 16 29 37 17 21 28 12 4 24 2 11 18 8 19 9 3 11 6 0 6 3 0 4 8 8 21 22 37 55 10 32 10 36 38 46 15 18 19 39 37 40 255 255 255 
255 255 255 28 31 92 0 0 0 0 0 0 0 0 0 0 0 0 0 0 0 0 0 0 0 0 0 0 0 0 3 0 0 0 0 0 9 0 0 7 26 0 17 4 66 1 0 52 1 4 5 9 5 6 0 7 6 0 3 0 10 10 29 0 8 26 0 24 0 0 0 0 22 36 20 1 16 2 0 18 13 0 17 15 0 25 9 3 28 22 0 28 38 3 41 44 4 0 0 0 0 0 9 36 28 0 0 0 45 47 56 255 255 255 
255 255 255 45 81 225 0 0 0 10 15 0 49 57 0 30 3 0 39 68 0 0 31 0 0 0 0 0 7 0 0 0 0 0 0 0 0 0 0 7 37 0 7 10 109 8 13 64 29 26 14 0 0 0 0 8 0 3 19 24 0 40 31 0 0 0 58 90 58 26 66 40 15 51 45 0 12 10 0 10 13 0 12 14 0 25 12 3 20 16 3 46 16 3 54 40 2 29 21 2 49 46 6 56 59 4 0 0 32 51 45 255 255 255 
255 255 255 39 33 249 0 0 0 0 0 0 24 19 0 4 0 0 14 34 0 18 13 0 31 44 24 27 69 58 31 51 0 11 0 0 23 0 0 5 54 50 7 14 216 0 0 57 18 0 10 23 0 5 32 12 18 44 27 33 0 0 0 32 0 0 113 213 213 179 129 130 247 255 255 211 255 255 183 255 255 179 255 255 195 255 255 223 255 255 245 255 255 249 255 255 239 255 255 244 255 255 166 151 137 91 194 181 9 39 38 255 255 255 
255 255 255 52 68 255 0 0 0 13 0 0 19 50 0 0 0 0 1 18 0 2 0 0 0 0 0 1 0 0 6 0 0 0 0 0 18 0 0 12 58 39 13 12 190 0 0 67 31 0 2 26 0 8 26 0 0 25 18 16 18 0 0 11 43 51 194 219 220 0 0 0 0 0 0 0 0 0 0 0 0 0 0 0 0 0 0 0 0 0 0 0 0 0 0 0 0 0 0 0 0 0 0 0 0 177 248 243 0 13 6 255 255 255 
255 255 255 58 49 234 0 0 0 37 52 0 13 0 0 0 3 0 0 0 0 1 8 44 1 3 84 1 0 54 4 7 0 29 33 0 0 0 0 26 66 47 21 6 63 0 11 88 0 18 0 0 0 4 0 19 20 0 29 26 16 45 31 0 57 26 255 255 255 0 0 0 20 0 0 42 0 0 67 0 0 84 0 0 55 0 0 69 0 0 41 0 0 28 0 0 66 0 0 55 0 0 0 0 0 255 255 255 0 37 28 255 255 255 
255 255 255 72 45 230 0 0 0 38 55 0 15 0 0 2 18 0 0 0 6 0 0 42 1 3 85 1 0 44 1 4 0 38 29 0 0 0 0 40 76 61 15 0 49 0 2 89 0 7 0 0 10 0 0 26 19 0 3 0 16 13 0 0 0 0 255 255 255 0 0 0 70 15 18 77 0 11 98 0 0 97 0 6 90 0 0 91 0 0 85 0 0 82 0 0 137 23 59 83 0 38 0 0 0 255 255 255 0 0 0 255 255 255 
255 255 255 76 45 255 0 0 0 28 51 0 2 0 0 7 17 0 5 0 0 6 1 0 8 12 19 0 0 0 5 12 0 39 37 0 0 0 0 42 79 144 16 0 151 0 2 72 33 0 0 39 0 0 30 10 20 19 0 0 9 7 38 0 4 31 245 255 255 0 0 0 58 0 0 91 0 0 100 0 0 100 0 0 94 0 0 104 0 0 96 0 0 76 0 0 31 0 0 27 0 0 0 0 0 255 255 255 0 32 29 255 255 255 
255 255 255 71 47 255 0 0 0 30 51 0 6 0 0 13 18 0 0 0 0 0 8 5 9 16 0 0 0 0 11 9 0 40 28 0 0 0 0 41 83 159 17 0 143 0 2 71 33 6 4 55 4 0 35 0 14 44 0 0 35 7 30 22 6 29 190 255 255 0 0 0 0 0 0 0 0 0 0 0 0 0 0 0 0 0 0 0 0 0 0 0 0 0 0 0 0 0 0 0 0 0 0 0 0 180 242 239 0 0 0 255 255 255 
255 255 255 61 49 255 0 0 0 24 62 0 4 0 0 17 17 0 0 0 0 1 4 0 13 18 0 0 0 0 7 12 0 40 29 0 0 0 0 39 85 110 26 0 58 0 0 62 0 1 15 0 5 4 0 13 10 0 21 11 0 35 0 0 0 0 120 235 199 72 145 97 248 255 255 220 255 255 191 255 255 172 255 255 165 255 255 164 255 255 173 255 255 190 255 255 209 255 255 233 255 255 161 163 178 86 191 193 0 53 37 255 255 255 
255 255 255 50 55 255 0 0 0 31 61 0 0 0 0 17 13 0 0 0 0 0 7 0 3 19 0 0 0 0 9 12 0 39 34 0 0 0 0 36 88 128 19 0 33 0 0 44 0 0 12 0 8 20 0 10 4 0 15 20 0 26 19 0 0 0 10 71 51 0 64 30 0 68 39 0 40 10 0 44 12 0 48 12 1 51 30 0 55 30 2 57 28 21 70 29 35 38 24 41 45 35 23 48 33 9 0 0 2 25 31 255 255 255 
255 255 255 49 63 255 0 0 0 49 62 0 22 0 0 35 14 0 7 0 0 12 10 0 15 31 0 3 0 0 27 12 0 53 28 0 0 0 0 39 92 145 9 0 50 28 5 62 8 6 16 43 18 19 2 0 0 51 18 6 41 10 16 31 6 23 24 0 5 2 0 0 12 0 15 0 0 21 0 0 35 0 0 31 0 0 29 4 0 27 2 0 27 31 0 36 0 0 0 0 22 16 13 26 28 22 26 9 10 31 11 255 255 255 
255 255 255 51 63 240 0 0 0 41 32 0 9 0 0 57 11 0 0 2 0 21 16 0 36 31 0 0 13 0 44 6 0 44 12 0 0 0 0 49 89 147 8 9 65 11 5 49 0 0 0 21 10 6 11 0 7 7 0 0 0 0 0 0 0 0 1 0 0 1 0 27 3 8 18 6 3 6 1 1 2 1 5 0 6 0 0 2 0 0 1 0 0 46 7 9 0 10 16 0 4 18 0 0 0 0 3 0 13 0 0 255 255 255 
255 255 255 1 5 11 0 0 0 0 0 0 0 0 0 0 0 0 0 0 0 0 0 0 0 0 0 0 0 0 0 0 0 0 0 0 0 0 0 0 0 0 7 9 0 4 5 0 4 6 5 4 11 12 0 7 18 0 9 0 0 17 20 0 17 15 0 11 10 0 10 4 0 1 0 1 5 0 2 4 0 2 0 0 1 3 0 0 9 0 0 0 0 25 2 0 0 3 2 18 1 17 31 1 7 11 2 13 11 2 7 255 255 255 
255 255 255 21 20 29 43 40 74 61 57 118 65 62 134 64 61 114 64 59 102 67 59 96 71 60 108 70 62 117 68 63 122 58 60 94 43 49 79 22 32 31 9 20 0 2 9 0 2 5 6 0 1 13 0 3 4 0 5 2 0 6 2 0 6 0 0 5 0 0 4 0 0 2 0 0 1 0 0 1 0 0 2 0 0 3 0 0 4 0 0 4 0 6 3 0 13 1 0 17 0 2 14 0 4 7 0 6 3 0 6 255 255 255 
255 255 255 0 0 51 0 0 31 1 4 56 0 1 62 0 4 65 0 9 76 0 16 88 0 18 72 0 17 71 0 11 64 0 9 68 0 9 78 0 0 71 2 0 69 0 0 36 2 10 15 0 1 4 0 0 0 0 0 0 0 0 0 0 0 0 0 0 0 0 0 0 0 0 0 0 0 0 0 0 0 0 0 0 0 0 0 0 0 0 0 0 0 0 0 0 0 0 0 0 0 0 0 0 0 0 0 0 0 0 0 255 255 255 
255 255 255 255 255 255 255 255 255 255 255 255 255 255 255 255 255 255 255 255 255 255 255 255 255 255 255 255 255 255 255 255 255 255 255 255 255 255 255 255 255 255 255 255 255 255 255 255 255 255 255 255 255 255 255 255 255 255 255 255 255 255 255 255 255 255 255 255 255 255 255 255 255 255 255 255 255 255 255 255 255 255 255 255 255 255 255 255 255 255 255 255 255 255 255 255 255 255 255 255 255 255 255 255 255 255 255 255 255 255 255 255 255 255 
