P3
38 36
255
255 255 0 252 252 3 251 251 4 255 255 0 255 255 0 255 255 0 249 249 6 249 249 6 255 255 0 249 249 6 255 255 0 250 250 5 255 255 0 250 250 5 250 250 5 254 255 0 251 255 0 249 251 0 253 249 0 255 248 0 255 234 0 255 242 0 255 245 2 255 246 12 255 253 14 255 255 18 255 255 18 252 255 14 249 255 9 249 255 2 254 255 0 255 252 0 255 248 14 255 251 16 254 247 14 252 254 2 252 255 0 251 255 0 
242 242 13 255 255 0 241 241 14 255 255 0 255 255 0 250 250 5 255 255 0 255 255 0 255 255 0 255 255 0 255 255 0 248 248 7 233 233 22 255 255 0 250 250 5 238 239 14 250 255 0 250 255 0 255 253 0 255 250 0 255 239 1 255 244 0 255 249 0 255 251 5 255 255 11 255 255 14 252 255 14 251 255 11 249 255 5 251 255 0 255 254 0 255 253 0 255 251 9 255 253 11 255 251 7 255 255 0 254 254 0 252 255 0 
255 255 0 237 237 18 4 4 251 0 0 255 0 0 255 0 0 255 12 12 243 0 0 255 0 0 255 0 0 255 0 0 255 4 4 251 20 20 235 236 236 19 252 252 3 254 255 2 248 255 5 247 255 6 254 255 0 253 254 0 251 255 0 250 255 0 251 255 0 251 255 0 246 255 5 244 255 8 242 255 8 244 255 7 249 253 3 251 252 0 252 250 0 249 252 0 245 255 0 245 255 0 252 255 0 254 252 0 255 253 0 255 253 0 
255 255 0 255 255 0 0 0 255 5 5 250 10 10 245 3 3 252 7 7 248 0 0 255 0 0 255 0 0 255 0 0 255 0 0 255 0 0 255 255 255 0 255 255 0 254 255 4 251 255 11 251 255 11 249 254 7 239 253 2 231 255 0 224 255 0 226 255 0 221 255 0 230 255 0 228 255 0 226 255 0 230 255 0 241 255 0 245 255 0 241 255 0 233 255 0 218 255 0 213 255 0 247 255 0 249 243 2 254 247 1 255 248 4 
253 253 2 255 255 0 8 8 247 0 0 255 0 0 255 0 0 255 0 0 255 17 17 238 5 5 250 0 0 255 15 15 240 4 4 251 2 2 253 255 255 0 255 255 0 243 244 16 250 252 16 251 255 14 251 255 0 235 255 0 203 255 0 191 255 0 196 255 0 199 255 0 198 255 0 197 255 0 193 255 0 198 255 0 217 255 0 221 255 0 211 255 0 200 255 0 189 255 0 197 255 0 238 255 0 255 251 0 255 251 0 255 245 10 
255 255 0 255 255 0 2 2 253 0 0 255 12 12 243 15 15 240 0 0 255 0 0 255 4 4 251 0 0 255 0 0 255 0 0 255 0 0 255 248 248 7 255 255 0 255 255 4 255 255 9 255 255 5 252 255 0 213 249 0 85 183 61 42 169 71 43 164 62 51 167 49 51 164 49 48 166 49 40 170 51 47 167 54 69 156 56 73 154 56 58 162 56 47 168 60 38 171 67 69 171 69 205 236 0 245 233 2 255 248 1 255 248 10 
254 254 1 255 255 0 4 4 251 0 0 255 0 0 255 0 0 255 0 0 255 3 3 252 0 0 255 3 3 252 0 0 255 6 6 249 9 9 246 252 252 3 254 254 1 254 250 4 254 244 10 255 249 0 254 252 0 218 255 0 47 169 62 15 175 48 18 174 33 24 179 19 22 176 17 16 179 17 5 185 19 12 182 22 37 170 26 39 169 28 19 180 29 11 185 36 14 184 48 58 183 52 227 255 0 255 248 0 255 247 2 255 244 14 
253 253 2 255 255 0 0 0 255 0 0 255 12 12 243 0 0 255 11 11 244 0 0 255 0 0 255 8 8 247 0 0 255 3 3 252 1 1 254 255 255 0 255 255 0 255 253 1 255 250 0 255 249 0 249 246 0 219 255 0 37 172 51 16 194 23 11 186 12 4 177 10 4 178 4 0 181 4 0 188 6 0 186 9 18 173 15 19 173 18 0 185 20 0 190 29 0 181 50 41 177 56 223 255 0 255 248 0 255 246 2 255 237 21 
255 255 0 255 255 0 0 0 255 4 4 251 2 2 253 0 0 255 0 0 255 0 0 255 0 0 255 2 2 253 0 0 255 9 9 246 0 0 255 255 255 0 255 255 0 255 252 2 255 250 0 255 249 0 249 246 0 219 255 0 37 172 51 16 194 23 11 186 12 4 177 10 4 178 4 0 181 4 0 188 6 0 186 9 18 173 15 19 173 18 0 185 20 0 190 29 0 181 50 41 177 56 223 255 0 255 248 0 255 246 2 255 237 21 
253 253 2 255 255 0 0 0 255 4 4 251 0 0 255 0 0 255 7 7 248 7 7 248 4 4 251 0 0 255 8 8 247 6 6 249 9 9 246 244 244 11 255 255 0 255 254 0 254 244 10 255 249 0 254 252 0 218 255 0 47 169 62 15 175 48 18 174 33 24 179 19 22 176 17 16 179 17 5 185 19 12 182 22 37 170 26 39 169 28 19 180 29 11 185 36 14 184 48 58 183 52 227 255 0 255 248 0 255 247 2 255 244 14 
251 251 4 255 255 0 0 0 255 0 0 255 0 0 255 0 0 255 0 0 255 0 0 255 0 0 255 0 0 255 2 2 253 0 0 255 1 1 254 250 250 5 255 255 0 255 255 4 255 255 9 255 255 5 252 255 0 213 249 0 85 183 61 42 169 71 43 164 62 51 167 49 51 164 49 48 166 49 40 170 51 47 167 54 69 156 56 73 154 56 58 162 56 47 168 60 38 171 67 69 171 69 205 236 0 245 233 2 255 248 1 255 248 10 
255 255 0 255 255 0 0 0 255 5 5 250 5 5 250 9 9 246 1 1 254 0 0 255 2 2 253 10 10 245 0 0 255 0 0 255 0 0 255 255 255 0 252 252 3 243 244 16 250 252 16 251 255 14 251 255 0 235 255 0 203 255 0 191 255 0 196 255 0 199 255 0 198 255 0 197 255 0 193 255 0 198 255 0 217 255 0 221 255 0 211 255 0 200 255 0 189 255 0 197 255 0 238 255 0 255 251 0 255 251 0 255 245 10 
250 250 5 236 236 19 11 11 244 0 0 255 0 0 255 0 0 255 2 2 253 14 14 241 0 0 255 0 0 255 0 0 255 0 0 255 15 15 240 240 240 15 255 255 0 254 255 4 251 255 11 251 255 11 249 254 7 239 253 2 231 255 0 224 255 0 226 255 0 221 255 0 230 255 0 228 255 0 226 255 0 230 255 0 241 255 0 245 255 0 241 255 0 233 255 0 218 255 0 213 255 0 247 255 0 249 243 2 254 247 1 255 248 4 
249 249 6 255 255 0 229 229 26 255 255 0 255 255 0 255 255 0 246 246 9 246 246 9 255 255 0 245 245 10 255 255 0 255 255 0 247 247 8 255 255 0 246 246 9 234 236 22 248 255 5 247 255 6 254 255 0 253 254 0 251 255 0 250 255 0 251 255 0 251 255 0 246 255 5 244 255 8 242 255 8 244 255 7 249 253 3 251 252 0 252 250 0 249 252 0 245 255 0 245 255 0 252 255 0 254 252 0 255 253 0 255 253 0 
247 247 8 255 255 0 253 253 2 255 255 0 251 251 4 251 251 4 251 251 4 255 255 0 255 255 0 246 246 9 255 255 0 246 246 9 255 255 0 234 234 21 255 255 0 254 255 0 250 255 0 250 255 0 255 253 0 255 250 0 255 239 1 255 244 0 255 249 0 255 251 5 255 255 11 255 255 14 252 255 14 251 255 11 249 255 5 251 255 0 255 254 0 255 253 0 255 251 9 255 253 11 255 251 7 255 255 0 254 254 0 252 255 0 
254 255 0 242 243 10 255 255 4 253 252 7 255 254 0 255 255 0 252 255 4 251 255 4 247 252 0 252 255 0 250 251 0 255 255 0 255 255 2 251 251 6 252 255 0 233 237 15 254 254 0 253 249 0 255 247 0 255 247 0 255 235 2 255 244 0 255 246 2 255 247 10 255 255 11 255 255 14 252 255 12 249 255 11 248 255 5 249 255 2 255 254 0 255 253 0 255 249 9 255 252 9 251 247 11 252 253 0 254 254 0 252 255 0 
244 251 0 252 255 0 254 252 15 255 253 13 255 252 0 248 249 2 247 255 12 242 255 11 242 255 0 245 255 0 252 255 0 255 253 0 254 253 6 253 255 6 248 255 0 251 255 0 255 250 0 255 241 0 255 246 0 255 239 0 255 232 7 255 246 0 255 249 0 255 253 2 251 255 4 245 255 5 242 255 4 242 255 4 245 255 2 249 255 0 255 254 0 255 253 0 254 255 0 241 244 6 254 255 0 244 243 6 255 253 0 251 249 1 
248 255 0 252 255 0 255 255 19 255 255 19 255 250 0 253 248 1 247 255 13 241 255 10 234 250 0 243 251 0 253 249 0 255 248 2 255 251 12 255 255 10 248 255 0 247 255 0 255 252 0 250 236 6 255 247 0 255 248 0 255 249 0 255 250 0 248 244 10 248 250 6 248 255 0 244 255 0 242 255 0 244 255 0 248 255 0 252 255 0 255 253 0 255 253 0 247 254 0 242 252 0 251 255 0 252 253 0 255 254 0 255 253 0 
242 246 0 255 255 4 255 247 39 255 250 34 255 249 5 255 246 2 255 255 7 252 255 0 252 252 0 255 249 0 255 248 0 255 249 2 255 252 14 255 255 14 251 255 2 244 255 0 245 255 0 246 255 0 248 255 0 247 255 0 249 255 0 249 255 0 243 252 6 249 255 2 246 255 5 246 255 3 246 255 3 249 253 1 252 251 0 255 249 0 255 247 0 255 249 0 250 255 0 242 252 2 249 254 0 247 251 3 251 252 1 255 255 0 
254 255 0 255 255 18 255 254 63 255 255 76 255 255 57 255 255 51 255 255 58 255 255 51 255 252 37 255 254 29 255 251 46 255 247 58 255 250 54 255 255 35 255 255 9 244 255 0 236 255 2 240 255 0 240 255 0 230 253 10 234 255 7 242 255 2 245 255 6 249 255 4 254 255 4 255 255 4 255 253 2 255 253 0 255 252 0 255 251 0 255 251 0 255 252 0 255 254 0 253 254 6 255 255 2 254 255 2 254 255 2 244 246 12 
250 249 8 255 253 43 241 232 140 243 231 184 250 233 187 241 228 202 239 235 207 233 235 207 239 239 188 245 240 179 250 237 184 247 232 174 253 239 138 255 253 81 255 255 23 250 255 1 246 255 1 244 255 2 239 255 4 237 255 7 240 255 4 242 255 5 244 255 10 240 243 21 255 254 7 255 251 7 255 250 5 255 250 4 255 252 4 255 254 2 252 255 0 255 255 2 255 242 19 253 236 26 255 252 9 251 248 14 255 255 4 236 241 20 
255 254 0 255 255 44 247 239 163 248 237 224 255 242 237 254 239 255 252 247 255 246 245 255 242 239 255 248 242 247 249 237 250 243 228 232 250 236 177 255 253 99 255 255 25 254 255 0 254 255 0 245 251 8 243 254 7 245 255 4 243 255 7 237 247 19 255 255 11 255 251 12 255 245 12 255 241 12 255 239 12 255 240 12 255 244 12 255 247 11 255 252 11 255 250 12 255 243 18 255 242 18 255 246 14 255 244 18 255 255 7 246 249 13 
254 250 0 255 251 46 238 231 177 245 232 241 255 241 249 255 238 255 255 245 255 254 243 255 255 246 248 255 248 243 255 243 249 253 233 233 255 239 173 255 255 91 255 255 14 254 249 0 255 248 0 255 246 2 255 253 2 255 254 4 245 240 21 254 239 23 255 246 14 255 214 42 255 230 19 255 225 21 255 222 23 255 223 25 255 228 25 255 233 25 255 238 25 255 238 27 255 223 34 255 229 27 255 216 43 255 245 16 255 252 9 255 255 7 
255 253 0 255 255 47 242 238 186 249 238 249 255 245 254 255 238 255 255 241 255 255 235 255 254 233 251 255 239 247 255 236 255 251 230 240 255 238 177 255 255 95 255 255 18 250 249 0 255 250 0 255 250 0 255 249 4 255 253 5 255 246 15 255 247 12 255 223 34 161 79 172 170 54 192 187 47 195 197 42 199 198 42 200 191 46 202 181 51 204 170 57 206 169 58 204 177 52 199 180 65 183 164 78 176 255 228 29 255 247 13 255 254 7 
252 255 11 255 255 62 237 239 205 252 247 255 255 237 255 255 239 255 255 235 250 255 237 239 255 236 231 255 234 237 255 237 250 255 239 233 243 230 192 255 255 99 255 255 35 248 255 0 248 255 0 244 253 0 247 255 0 248 255 3 255 254 7 255 248 14 255 237 19 156 55 196 188 46 197 209 37 204 225 30 208 232 27 213 227 30 215 222 33 218 212 39 220 206 40 215 205 41 203 192 45 194 169 59 187 255 233 19 255 246 12 255 250 11 
251 255 9 255 255 64 235 241 208 251 248 255 255 238 255 255 240 255 255 235 248 255 236 237 255 237 229 255 234 237 255 238 250 255 239 232 242 231 191 255 255 96 254 255 35 247 255 0 243 255 0 245 255 0 247 255 0 246 251 8 255 248 11 255 239 19 255 233 21 178 65 184 200 46 197 223 35 203 240 27 210 247 24 213 247 25 217 243 28 220 236 32 222 228 35 215 223 42 196 199 43 191 164 44 199 255 230 19 255 239 17 255 250 9 
249 255 0 255 255 46 234 240 201 249 248 255 253 239 255 255 241 255 255 238 253 255 239 246 255 240 242 254 237 248 255 240 253 255 240 228 242 228 178 255 255 80 254 255 19 248 255 0 253 253 0 255 252 0 255 252 0 255 241 8 255 245 5 255 238 12 255 219 28 162 42 203 197 41 200 217 32 207 231 26 212 238 23 216 239 23 219 238 24 221 232 27 223 222 31 216 206 35 202 189 43 191 161 46 194 255 231 18 255 243 12 255 250 9 
251 254 0 255 255 44 234 240 199 249 248 255 253 239 255 255 242 255 252 240 255 253 242 251 254 243 252 251 240 255 255 241 255 255 239 226 242 227 173 255 255 74 254 255 18 248 255 0 251 255 0 254 254 0 253 251 0 255 247 4 255 247 5 255 242 11 255 227 27 180 91 160 172 57 191 186 51 197 196 47 202 201 44 204 203 44 206 201 45 207 199 47 209 193 48 204 183 48 193 180 63 174 169 76 168 255 223 28 255 239 16 255 250 9 
254 255 0 255 255 53 237 239 205 249 249 255 253 239 255 255 242 255 251 240 255 252 243 255 253 245 255 250 242 255 254 242 255 255 239 226 242 227 173 255 255 80 255 255 30 245 255 4 237 255 0 235 255 0 238 255 0 242 255 2 243 254 9 245 247 19 255 253 12 243 223 43 255 246 20 255 244 24 255 242 26 255 241 26 255 241 28 255 242 28 255 242 28 255 240 26 255 232 20 255 229 18 255 217 32 255 242 12 255 248 11 255 243 16 
255 254 0 255 255 55 238 239 206 251 248 255 253 238 255 255 241 254 251 240 255 250 244 255 251 246 255 250 242 255 254 242 255 255 239 225 243 226 169 255 255 78 255 255 35 247 255 9 237 255 2 234 255 0 236 255 2 241 255 2 244 255 5 239 249 15 251 255 9 252 255 11 252 255 11 252 255 11 252 255 11 252 255 11 254 255 9 254 255 9 255 255 9 255 255 9 255 250 9 255 248 9 255 249 9 255 243 16 255 250 9 255 241 19 
255 251 0 255 255 50 241 237 201 252 246 251 254 236 253 255 240 249 251 240 253 250 244 255 250 247 255 250 242 255 254 241 253 255 237 218 244 224 162 255 255 71 255 255 32 254 255 9 249 255 4 251 255 2 248 247 10 255 253 4 255 251 4 255 250 4 255 248 7 254 244 12 255 252 4 253 253 2 252 253 0 252 253 0 253 252 0 255 250 0 255 248 0 254 251 0 235 252 9 241 255 5 248 255 5 253 255 8 255 254 9 255 249 12 
255 253 4 255 255 48 237 233 173 247 241 214 246 234 221 251 238 220 244 239 229 245 242 232 246 244 234 243 241 236 249 238 223 249 235 191 239 223 145 255 255 62 255 255 30 255 255 12 251 250 10 255 254 4 255 251 3 255 247 7 255 245 5 255 244 6 255 247 4 255 250 0 255 253 0 255 254 0 254 254 0 254 254 0 255 252 0 255 250 0 255 249 0 255 253 0 236 255 0 233 255 2 232 254 13 247 255 6 255 254 6 255 254 7 
255 255 28 251 251 58 240 242 110 233 235 145 232 233 160 235 235 170 234 236 182 232 235 189 232 235 189 230 235 182 233 233 168 234 234 143 240 238 102 248 246 66 255 255 35 255 255 18 255 255 7 255 255 2 255 254 0 255 253 2 255 253 0 255 253 0 255 253 0 255 254 0 255 254 0 255 255 0 255 255 0 255 254 0 255 254 0 255 254 0 255 253 0 255 254 0 249 255 0 248 255 0 251 255 2 252 255 2 255 255 2 255 255 2 
255 255 28 255 255 35 255 255 49 255 255 62 255 255 73 255 255 85 255 255 94 255 255 99 255 255 97 255 255 90 255 255 78 255 255 64 255 255 46 255 255 32 255 255 21 255 255 11 255 255 4 255 255 0 255 255 0 255 255 0 255 255 0 255 255 0 255 255 0 255 255 0 255 255 0 255 255 0 255 255 0 255 255 0 255 255 0 255 255 0 255 255 0 255 255 0 255 255 0 255 255 0 255 255 0 255 255 0 255 255 0 255 255 0 
255 255 5 254 254 11 254 253 20 255 255 25 255 255 32 255 255 39 255 255 44 255 255 46 255 255 47 255 255 42 255 255 34 255 255 23 255 255 12 255 253 5 255 251 0 253 250 0 255 255 0 255 255 0 255 255 0 255 255 0 255 255 0 255 255 0 255 255 0 255 255 0 255 255 0 255 255 0 255 255 0 255 255 0 255 255 0 255 255 0 255 255 0 255 255 0 255 255 0 255 255 0 255 255 0 255 255 0 255 255 0 255 255 0 
255 253 0 255 254 0 255 254 2 255 255 7 255 254 11 255 255 16 255 252 22 255 249 27 255 248 26 255 250 21 255 250 14 255 254 4 255 252 0 255 252 0 255 250 0 255 251 0 255 254 0 255 255 0 255 255 0 255 255 0 255 255 0 255 255 0 255 255 0 255 255 0 255 255 0 255 255 0 255 255 0 255 255 0 255 255 0 255 255 0 255 255 0 255 255 0 255 255 0 255 255 0 255 255 0 255 255 0 255 255 0 255 255 0 
