P3
38 36
255
0 255 255 3 252 252 4 251 251 0 255 255 0 255 255 0 255 255 6 249 249 6 249 249 0 255 255 6 249 249 0 255 255 5 250 250 0 255 255 5 250 250 5 250 250 1 255 255 4 255 255 6 251 255 2 249 255 0 248 255 0 234 255 0 242 255 0 245 253 0 246 243 0 253 241 0 255 237 0 255 237 3 255 241 6 255 246 6 255 253 1 255 255 0 252 255 0 248 241 0 251 239 1 247 241 3 254 253 3 255 255 4 255 255 
13 242 242 0 255 255 14 241 241 0 255 255 0 255 255 5 250 250 0 255 255 0 255 255 0 255 255 0 255 255 0 255 255 7 248 248 22 233 233 0 255 255 5 250 250 17 239 241 5 255 255 5 255 255 0 253 255 0 250 255 0 239 254 0 244 255 0 249 255 0 251 250 0 255 244 0 255 241 3 255 241 4 255 244 6 255 250 4 255 255 0 254 255 0 253 255 0 251 246 0 253 244 0 251 248 0 255 255 1 254 255 3 255 255 
0 255 255 18 237 237 251 4 4 255 0 0 255 0 0 255 0 0 243 12 12 255 0 0 255 0 0 255 0 0 255 0 0 251 4 4 235 20 20 19 236 236 3 252 252 1 255 253 7 255 250 8 255 249 1 255 255 2 254 255 4 255 255 5 255 255 4 255 255 4 255 255 9 255 250 11 255 247 13 255 247 11 255 248 6 253 252 4 252 255 3 250 255 6 252 255 10 255 255 10 255 255 3 255 255 1 252 255 0 253 255 0 253 255 
0 255 255 0 255 255 255 0 0 250 5 5 245 10 10 252 3 3 248 7 7 255 0 0 255 0 0 255 0 0 255 0 0 255 0 0 255 0 0 0 255 255 0 255 255 1 255 251 4 255 244 4 255 244 6 254 248 16 253 253 24 255 255 31 255 255 29 255 255 34 255 255 25 255 255 27 255 255 29 255 255 25 255 255 14 255 255 10 255 255 14 255 255 22 255 255 37 255 255 42 255 255 8 255 255 6 243 253 1 247 254 0 248 251 
2 253 253 0 255 255 247 8 8 255 0 0 255 0 0 255 0 0 255 0 0 238 17 17 250 5 5 255 0 0 240 15 15 251 4 4 253 2 2 0 255 255 0 255 255 12 244 239 5 252 239 4 255 241 4 255 255 20 255 255 52 255 255 64 255 255 59 255 255 56 255 255 57 255 255 58 255 255 62 255 255 57 255 255 38 255 255 34 255 255 44 255 255 55 255 255 66 255 255 58 255 255 17 255 255 0 251 255 0 251 255 0 245 245 
0 255 255 0 255 255 253 2 2 255 0 0 243 12 12 240 15 15 255 0 0 255 0 0 251 4 4 255 0 0 255 0 0 255 0 0 255 0 0 7 248 248 0 255 255 0 255 251 0 255 246 0 255 250 3 255 255 42 249 255 170 183 194 213 169 184 212 164 193 204 167 206 204 164 206 207 166 206 215 170 204 208 167 201 186 156 199 182 154 199 197 162 199 208 168 195 217 171 188 186 171 186 50 236 255 10 233 253 0 248 254 0 248 245 
1 254 254 0 255 255 251 4 4 255 0 0 255 0 0 255 0 0 255 0 0 252 3 3 255 0 0 252 3 3 255 0 0 249 6 6 246 9 9 3 252 252 1 254 254 1 250 251 1 244 245 0 249 255 1 252 255 37 255 255 208 169 193 240 175 207 237 174 222 231 179 236 233 176 238 239 179 238 250 185 236 243 182 233 218 170 229 216 169 227 236 180 226 244 185 219 241 184 207 197 183 203 28 255 255 0 248 255 0 247 253 0 244 241 
2 253 253 0 255 255 255 0 0 255 0 0 243 12 12 255 0 0 244 11 11 255 0 0 255 0 0 247 8 8 255 0 0 252 3 3 254 1 1 0 255 255 0 255 255 0 253 254 0 250 255 0 249 255 6 246 255 36 255 255 218 172 204 239 194 232 244 186 243 251 177 245 251 178 251 255 181 251 255 188 249 255 186 246 237 173 240 236 173 237 255 185 235 255 190 226 255 181 205 214 177 199 32 255 255 0 248 255 0 246 253 0 237 234 
0 255 255 0 255 255 255 0 0 251 4 4 253 2 2 255 0 0 255 0 0 255 0 0 255 0 0 253 2 2 255 0 0 246 9 9 255 0 0 0 255 255 0 255 255 0 252 253 0 250 255 0 249 255 6 246 255 36 255 255 218 172 204 239 194 232 244 186 243 251 177 245 251 178 251 255 181 251 255 188 249 255 186 246 237 173 240 236 173 237 255 185 235 255 190 226 255 181 205 214 177 199 32 255 255 0 248 255 0 246 253 0 237 234 
2 253 253 0 255 255 255 0 0 251 4 4 255 0 0 255 0 0 248 7 7 248 7 7 251 4 4 255 0 0 247 8 8 249 6 6 246 9 9 11 244 244 0 255 255 0 254 255 1 244 245 0 249 255 1 252 255 37 255 255 208 169 193 240 175 207 237 174 222 231 179 236 233 176 238 239 179 238 250 185 236 243 182 233 218 170 229 216 169 227 236 180 226 244 185 219 241 184 207 197 183 203 28 255 255 0 248 255 0 247 253 0 244 241 
4 251 251 0 255 255 255 0 0 255 0 0 255 0 0 255 0 0 255 0 0 255 0 0 255 0 0 255 0 0 253 2 2 255 0 0 254 1 1 5 250 250 0 255 255 0 255 251 0 255 246 0 255 250 3 255 255 42 249 255 170 183 194 213 169 184 212 164 193 204 167 206 204 164 206 207 166 206 215 170 204 208 167 201 186 156 199 182 154 199 197 162 199 208 168 195 217 171 188 186 171 186 50 236 255 10 233 253 0 248 254 0 248 245 
0 255 255 0 255 255 255 0 0 250 5 5 250 5 5 246 9 9 254 1 1 255 0 0 253 2 2 245 10 10 255 0 0 255 0 0 255 0 0 0 255 255 3 252 252 12 244 239 5 252 239 4 255 241 4 255 255 20 255 255 52 255 255 64 255 255 59 255 255 56 255 255 57 255 255 58 255 255 62 255 255 57 255 255 38 255 255 34 255 255 44 255 255 55 255 255 66 255 255 58 255 255 17 255 255 0 251 255 0 251 255 0 245 245 
5 250 250 19 236 236 244 11 11 255 0 0 255 0 0 255 0 0 253 2 2 241 14 14 255 0 0 255 0 0 255 0 0 255 0 0 240 15 15 15 240 240 0 255 255 1 255 251 4 255 244 4 255 244 6 254 248 16 253 253 24 255 255 31 255 255 29 255 255 34 255 255 25 255 255 27 255 255 29 255 255 25 255 255 14 255 255 10 255 255 14 255 255 22 255 255 37 255 255 42 255 255 8 255 255 6 243 253 1 247 254 0 248 251 
6 249 249 0 255 255 26 229 229 0 255 255 0 255 255 0 255 255 9 246 246 9 246 246 0 255 255 10 245 245 0 255 255 0 255 255 8 247 247 0 255 255 9 246 246 21 236 233 7 255 250 8 255 249 1 255 255 2 254 255 4 255 255 5 255 255 4 255 255 4 255 255 9 255 250 11 255 247 13 255 247 11 255 248 6 253 252 4 252 255 3 250 255 6 252 255 10 255 255 10 255 255 3 255 255 1 252 255 0 253 255 0 253 255 
8 247 247 0 255 255 2 253 253 0 255 255 4 251 251 4 251 251 4 251 251 0 255 255 0 255 255 9 246 246 0 255 255 9 246 246 0 255 255 21 234 234 0 255 255 1 255 255 5 255 255 5 255 255 0 253 255 0 250 255 0 239 254 0 244 255 0 249 255 0 251 250 0 255 244 0 255 241 3 255 241 4 255 244 6 255 250 4 255 255 0 254 255 0 253 255 0 251 246 0 253 244 0 251 248 0 255 255 1 254 255 3 255 255 
1 255 255 13 243 245 0 255 251 2 252 248 0 254 255 0 255 255 3 255 251 4 255 251 8 252 255 3 255 255 5 251 255 0 255 255 0 255 253 4 251 249 3 255 255 22 237 240 1 254 255 2 249 255 0 247 255 0 247 255 0 235 253 0 244 255 0 246 253 0 247 245 0 255 244 0 255 241 3 255 243 6 255 244 7 255 250 6 255 253 0 254 255 0 253 255 0 249 246 0 252 246 4 247 244 3 253 255 1 254 255 3 255 255 
11 251 255 3 255 255 1 252 240 0 253 242 0 252 255 7 249 253 8 255 243 13 255 244 13 255 255 10 255 255 3 255 255 0 253 255 1 253 249 2 255 249 7 255 255 4 255 255 0 250 255 0 241 255 0 246 255 0 239 255 0 232 248 0 246 255 0 249 255 0 253 253 4 255 251 10 255 250 13 255 251 13 255 251 10 255 253 6 255 255 0 254 255 0 253 255 1 255 255 14 244 249 1 255 255 11 243 249 0 253 255 4 249 254 
7 255 255 3 255 255 0 255 236 0 255 236 0 250 255 2 248 254 8 255 242 14 255 245 21 250 255 12 251 255 2 249 255 0 248 253 0 251 243 0 255 245 7 255 255 8 255 255 0 252 255 5 236 249 0 247 255 0 248 255 0 249 255 0 250 255 7 244 245 7 250 249 7 255 255 11 255 255 13 255 255 11 255 255 7 255 255 3 255 255 0 253 255 0 253 255 8 254 255 13 252 255 4 255 255 3 253 255 0 254 255 0 253 255 
13 246 255 0 255 251 0 247 216 0 250 221 0 249 250 0 246 253 0 255 248 3 255 255 3 252 255 0 249 255 0 248 255 0 249 253 0 252 241 0 255 241 4 255 253 11 255 255 10 255 255 9 255 255 7 255 255 8 255 255 6 255 255 6 255 255 12 252 249 6 255 253 9 255 250 9 255 252 9 255 252 6 253 254 3 251 255 0 249 255 0 247 255 0 249 255 5 255 255 13 252 253 6 254 255 8 251 252 4 252 254 0 255 255 
1 255 255 0 255 237 0 254 192 0 255 179 0 255 198 0 255 204 0 255 197 0 255 204 0 252 218 0 254 226 0 251 209 0 247 197 0 250 201 0 255 220 0 255 246 11 255 255 19 255 253 15 255 255 15 255 255 25 253 245 21 255 248 13 255 253 10 255 249 6 255 251 1 255 251 0 255 251 0 253 253 0 253 255 0 252 255 0 251 255 0 251 255 0 252 255 0 254 255 2 254 249 0 255 253 1 255 253 1 255 253 11 246 243 
5 249 247 0 253 212 14 232 115 12 231 71 5 233 68 14 228 53 16 235 48 22 235 48 16 239 67 10 240 76 5 237 71 8 232 81 2 239 117 0 253 174 0 255 232 5 255 254 9 255 254 11 255 253 16 255 251 18 255 248 15 255 251 13 255 250 11 255 245 15 243 234 0 254 248 0 251 248 0 250 250 0 250 251 0 252 251 0 254 253 3 255 255 0 255 253 0 242 236 2 236 229 0 252 246 4 248 241 0 255 251 19 241 235 
0 254 255 0 255 211 8 239 92 7 237 31 0 242 18 1 239 0 3 247 0 9 245 0 13 239 0 7 242 8 6 237 5 12 228 23 5 236 78 0 253 156 0 255 230 1 255 255 1 255 255 10 251 247 12 254 248 10 255 251 12 255 248 18 247 236 0 255 244 0 251 243 0 245 243 0 241 243 0 239 243 0 240 243 0 244 243 0 247 244 0 252 244 0 250 243 0 243 237 0 242 237 0 246 241 0 244 237 0 255 248 9 249 242 
1 250 255 0 251 209 17 231 78 10 232 14 0 241 6 0 238 0 0 245 0 1 243 0 0 246 7 0 248 12 0 243 6 2 233 22 0 239 82 0 255 164 0 255 241 1 249 255 0 248 255 0 246 253 0 253 253 0 254 251 10 240 234 1 239 232 0 246 241 0 214 213 0 230 236 0 225 234 0 222 232 0 223 230 0 228 230 0 233 230 0 238 230 0 238 228 0 223 221 0 229 228 0 216 212 0 245 239 0 252 246 0 255 248 
0 253 255 0 255 208 13 238 69 6 238 6 0 245 1 0 238 0 0 241 0 0 235 0 1 233 4 0 239 8 0 236 0 4 230 15 0 238 78 0 255 160 0 255 237 5 249 255 0 250 255 0 250 255 0 249 251 0 253 250 0 246 240 0 247 243 0 223 221 94 79 83 85 54 63 68 47 60 58 42 56 57 42 55 64 46 53 74 51 51 85 57 49 86 58 51 78 52 56 75 65 72 91 78 79 0 228 226 0 247 242 0 254 248 
3 255 244 0 255 193 18 239 50 3 247 0 0 237 0 0 239 0 0 235 5 0 237 16 0 236 24 0 234 18 0 237 5 0 239 22 12 230 63 0 255 156 0 255 220 7 255 255 7 255 255 11 253 255 8 255 255 7 255 252 0 254 248 0 248 241 0 237 236 99 55 59 67 46 58 46 37 51 30 30 47 23 27 42 28 30 40 33 33 37 43 39 35 49 40 40 50 41 52 63 45 61 86 59 68 0 233 236 0 246 243 0 250 244 
4 255 246 0 255 191 20 241 47 4 248 0 0 238 0 0 240 0 0 235 7 0 236 18 0 237 26 0 234 18 0 238 5 0 239 23 13 231 64 0 255 159 1 255 220 8 255 255 12 255 255 10 255 255 8 255 255 9 251 247 0 248 244 0 239 236 0 233 234 77 65 71 55 46 58 32 35 52 15 27 45 8 24 42 8 25 38 12 28 35 19 32 33 27 35 40 32 42 59 56 43 64 91 44 56 0 230 236 0 239 238 0 250 246 
6 255 255 0 255 209 21 240 54 6 248 0 2 239 0 0 241 0 0 238 2 0 239 9 0 240 13 1 237 7 0 240 2 0 240 27 13 228 77 0 255 175 1 255 236 7 255 255 2 253 255 0 252 255 0 252 255 0 241 247 0 245 250 0 238 243 0 219 227 93 42 52 58 41 55 38 32 48 24 26 43 17 23 39 16 23 36 17 24 34 23 27 32 33 31 39 49 35 53 66 43 64 94 46 61 0 231 237 0 243 243 0 250 246 
4 254 255 0 255 211 21 240 56 6 248 0 2 239 0 0 242 0 3 240 0 2 242 4 1 243 3 4 240 0 0 241 0 0 239 29 13 227 82 0 255 181 1 255 237 7 255 255 4 255 255 1 254 255 2 251 255 0 247 251 0 247 250 0 242 244 0 227 228 75 91 95 83 57 64 69 51 58 59 47 53 54 44 51 52 44 49 54 45 48 56 47 46 62 48 51 72 48 62 75 63 81 86 76 87 0 223 227 0 239 239 0 250 246 
1 255 255 0 255 202 18 239 50 6 249 0 2 239 0 0 242 0 4 240 0 3 243 0 2 245 0 5 242 0 1 242 0 0 239 29 13 227 82 0 255 175 0 255 225 10 255 251 18 255 255 20 255 255 17 255 255 13 255 253 12 254 246 10 247 236 0 253 243 12 223 212 0 246 235 0 244 231 0 242 229 0 241 229 0 241 227 0 242 227 0 242 227 0 240 229 0 232 235 0 229 237 0 217 223 0 242 243 0 248 244 0 243 239 
0 254 255 0 255 200 17 239 49 4 248 0 2 238 0 0 241 1 4 240 0 5 244 0 4 246 0 5 242 0 1 242 0 0 239 30 12 226 86 0 255 177 0 255 220 8 255 246 18 255 253 21 255 255 19 255 253 14 255 253 11 255 250 16 249 240 4 255 246 3 255 244 3 255 244 3 255 244 3 255 244 3 255 244 1 255 246 1 255 246 0 255 246 0 255 246 0 250 246 0 248 246 0 249 246 0 243 239 0 250 246 0 241 236 
0 251 255 0 255 205 14 237 54 3 246 4 1 236 2 0 240 6 4 240 2 5 244 0 5 247 0 5 242 0 1 241 2 0 237 37 11 224 93 0 255 184 0 255 223 1 255 246 6 255 251 4 255 253 7 247 245 0 253 251 0 251 251 0 250 251 0 248 248 1 244 243 0 252 251 2 253 253 3 253 255 3 253 255 2 252 255 0 250 255 0 248 255 1 251 255 20 252 246 14 255 250 7 255 250 2 255 247 0 254 246 0 249 243 
0 253 251 0 255 207 18 233 82 8 241 41 9 234 34 4 238 35 11 239 26 10 242 23 9 244 21 12 241 19 6 238 32 6 235 64 16 223 110 0 255 193 0 255 225 0 255 243 4 250 245 0 254 251 0 251 252 0 247 248 0 245 250 0 244 249 0 247 251 0 250 255 0 253 255 0 254 255 1 254 255 1 254 255 0 252 255 0 250 255 0 249 255 0 253 255 19 255 255 22 255 253 23 254 242 8 255 249 0 254 249 0 254 248 
0 255 227 4 251 197 15 242 145 22 235 110 23 233 95 20 235 85 21 236 73 23 235 66 23 235 66 25 235 73 22 233 87 21 234 112 15 238 153 7 246 189 0 255 220 0 255 237 0 255 248 0 255 253 0 254 255 0 253 253 0 253 255 0 253 255 0 253 255 0 254 255 0 254 255 0 255 255 0 255 255 0 254 255 0 254 255 0 254 255 0 253 255 0 254 255 6 255 255 7 255 255 4 255 253 3 255 253 0 255 253 0 255 253 
0 255 227 0 255 220 0 255 206 0 255 193 0 255 182 0 255 170 0 255 161 0 255 156 0 255 158 0 255 165 0 255 177 0 255 191 0 255 209 0 255 223 0 255 234 0 255 244 0 255 251 0 255 255 0 255 255 0 255 255 0 255 255 0 255 255 0 255 255 0 255 255 0 255 255 0 255 255 0 255 255 0 255 255 0 255 255 0 255 255 0 255 255 0 255 255 0 255 255 0 255 255 0 255 255 0 255 255 0 255 255 0 255 255 
0 255 250 1 254 244 1 253 235 0 255 230 0 255 223 0 255 216 0 255 211 0 255 209 0 255 208 0 255 213 0 255 221 0 255 232 0 255 243 0 253 250 0 251 255 2 250 255 0 255 255 0 255 255 0 255 255 0 255 255 0 255 255 0 255 255 0 255 255 0 255 255 0 255 255 0 255 255 0 255 255 0 255 255 0 255 255 0 255 255 0 255 255 0 255 255 0 255 255 0 255 255 0 255 255 0 255 255 0 255 255 0 255 255 
0 253 255 0 254 255 0 254 253 0 255 248 0 254 244 0 255 239 0 252 233 0 249 228 0 248 229 0 250 234 0 250 241 0 254 251 0 252 255 0 252 255 0 250 255 0 251 255 0 254 255 0 255 255 0 255 255 0 255 255 0 255 255 0 255 255 0 255 255 0 255 255 0 255 255 0 255 255 0 255 255 0 255 255 0 255 255 0 255 255 0 255 255 0 255 255 0 255 255 0 255 255 0 255 255 0 255 255 0 255 255 0 255 255 
