P3
38 36
255
255 0 255 252 3 252 251 4 251 255 0 255 255 0 255 255 0 255 249 6 249 249 6 249 255 0 255 249 6 249 255 0 255 250 5 250 255 0 255 250 5 250 250 5 250 254 0 255 251 0 255 249 4 255 253 6 255 255 7 255 255 21 255 255 13 255 255 10 253 255 9 243 255 2 241 255 0 237 255 0 237 252 0 241 249 0 246 249 0 253 254 0 255 255 3 255 255 7 241 255 4 239 254 8 241 252 1 253 252 0 255 251 0 255 
242 13 242 255 0 255 241 14 241 255 0 255 255 0 255 250 5 250 255 0 255 255 0 255 255 0 255 255 0 255 255 0 255 248 7 248 233 22 233 255 0 255 250 5 250 238 16 241 250 0 255 250 0 255 255 2 255 255 5 255 255 16 254 255 11 255 255 6 255 255 4 250 255 0 244 255 0 241 252 0 241 251 0 244 249 0 250 251 0 255 255 1 255 255 2 255 255 4 246 255 2 244 255 4 248 255 0 255 254 1 255 252 0 255 
255 0 255 237 18 237 4 251 4 0 255 0 0 255 0 0 255 0 12 243 12 0 255 0 0 255 0 0 255 0 0 255 0 4 251 4 20 235 20 236 19 236 252 3 252 254 0 253 248 0 250 247 0 249 254 0 255 253 1 255 251 0 255 250 0 255 251 0 255 251 0 255 246 0 250 244 0 247 242 0 247 244 0 248 249 2 252 251 3 255 252 5 255 249 3 255 245 0 255 245 0 255 252 0 255 254 3 255 255 2 255 255 2 255 
255 0 255 255 0 255 0 255 0 5 250 5 10 245 10 3 252 3 7 248 7 0 255 0 0 255 0 0 255 0 0 255 0 0 255 0 0 255 0 255 0 255 255 0 255 254 0 251 251 0 244 251 0 244 249 1 248 239 2 253 231 0 255 224 0 255 226 0 255 221 0 255 230 0 255 228 0 255 226 0 255 230 0 255 241 0 255 245 0 255 241 0 255 233 0 255 218 0 255 213 0 255 247 0 255 249 12 253 254 8 254 255 7 251 
253 2 253 255 0 255 8 247 8 0 255 0 0 255 0 0 255 0 0 255 0 17 238 17 5 250 5 0 255 0 15 240 15 4 251 4 2 253 2 255 0 255 255 0 255 243 11 239 250 3 239 251 0 241 251 0 255 235 0 255 203 0 255 191 0 255 196 0 255 199 0 255 198 0 255 197 0 255 193 0 255 198 0 255 217 0 255 221 0 255 211 0 255 200 0 255 189 0 255 197 0 255 238 0 255 255 4 255 255 4 255 255 10 245 
255 0 255 255 0 255 2 253 2 0 255 0 12 243 12 15 240 15 0 255 0 0 255 0 4 251 4 0 255 0 0 255 0 0 255 0 0 255 0 248 7 248 255 0 255 255 0 251 255 0 246 255 0 250 252 0 255 213 6 255 85 72 194 42 86 184 43 91 193 51 88 206 51 91 206 48 89 206 40 85 204 47 88 201 69 99 199 73 101 199 58 93 199 47 87 195 38 84 188 69 84 186 205 19 255 245 22 253 255 7 254 255 7 245 
254 1 254 255 0 255 4 251 4 0 255 0 0 255 0 0 255 0 0 255 0 3 252 3 0 255 0 3 252 3 0 255 0 6 249 6 9 246 9 252 3 252 254 1 254 254 5 251 254 11 245 255 6 255 254 3 255 218 0 255 47 86 193 15 80 207 18 81 222 24 76 236 22 79 238 16 76 238 5 70 236 12 73 233 37 85 229 39 86 227 19 75 226 11 70 219 14 71 207 58 72 203 227 0 255 255 7 255 255 8 253 255 11 241 
253 2 253 255 0 255 0 255 0 0 255 0 12 243 12 0 255 0 11 244 11 0 255 0 0 255 0 8 247 8 0 255 0 3 252 3 1 254 1 255 0 255 255 0 255 255 2 254 255 5 255 255 6 255 249 9 255 219 0 255 37 83 204 16 61 232 11 69 243 4 78 245 4 77 251 0 74 251 0 67 249 0 69 246 18 82 240 19 82 237 0 70 235 0 65 226 0 74 205 41 78 199 223 0 255 255 7 255 255 9 253 255 18 234 
255 0 255 255 0 255 0 255 0 4 251 4 2 253 2 0 255 0 0 255 0 0 255 0 0 255 0 2 253 2 0 255 0 9 246 9 0 255 0 255 0 255 255 0 255 255 3 253 255 5 255 255 6 255 249 9 255 219 0 255 37 83 204 16 61 232 11 69 243 4 78 245 4 77 251 0 74 251 0 67 249 0 69 246 18 82 240 19 82 237 0 70 235 0 65 226 0 74 205 41 78 199 223 0 255 255 7 255 255 9 253 255 18 234 
253 2 253 255 0 255 0 255 0 4 251 4 0 255 0 0 255 0 7 248 7 7 248 7 4 251 4 0 255 0 8 247 8 6 249 6 9 246 9 244 11 244 255 0 255 255 1 255 254 11 245 255 6 255 254 3 255 218 0 255 47 86 193 15 80 207 18 81 222 24 76 236 22 79 238 16 76 238 5 70 236 12 73 233 37 85 229 39 86 227 19 75 226 11 70 219 14 71 207 58 72 203 227 0 255 255 7 255 255 8 253 255 11 241 
251 4 251 255 0 255 0 255 0 0 255 0 0 255 0 0 255 0 0 255 0 0 255 0 0 255 0 0 255 0 2 253 2 0 255 0 1 254 1 250 5 250 255 0 255 255 0 251 255 0 246 255 0 250 252 0 255 213 6 255 85 72 194 42 86 184 43 91 193 51 88 206 51 91 206 48 89 206 40 85 204 47 88 201 69 99 199 73 101 199 58 93 199 47 87 195 38 84 188 69 84 186 205 19 255 245 22 253 255 7 254 255 7 245 
255 0 255 255 0 255 0 255 0 5 250 5 5 250 5 9 246 9 1 254 1 0 255 0 2 253 2 10 245 10 0 255 0 0 255 0 0 255 0 255 0 255 252 3 252 243 11 239 250 3 239 251 0 241 251 0 255 235 0 255 203 0 255 191 0 255 196 0 255 199 0 255 198 0 255 197 0 255 193 0 255 198 0 255 217 0 255 221 0 255 211 0 255 200 0 255 189 0 255 197 0 255 238 0 255 255 4 255 255 4 255 255 10 245 
250 5 250 236 19 236 11 244 11 0 255 0 0 255 0 0 255 0 2 253 2 14 241 14 0 255 0 0 255 0 0 255 0 0 255 0 15 240 15 240 15 240 255 0 255 254 0 251 251 0 244 251 0 244 249 1 248 239 2 253 231 0 255 224 0 255 226 0 255 221 0 255 230 0 255 228 0 255 226 0 255 230 0 255 241 0 255 245 0 255 241 0 255 233 0 255 218 0 255 213 0 255 247 0 255 249 12 253 254 8 254 255 7 251 
249 6 249 255 0 255 229 26 229 255 0 255 255 0 255 255 0 255 246 9 246 246 9 246 255 0 255 245 10 245 255 0 255 255 0 255 247 8 247 255 0 255 246 9 246 234 19 233 248 0 250 247 0 249 254 0 255 253 1 255 251 0 255 250 0 255 251 0 255 251 0 255 246 0 250 244 0 247 242 0 247 244 0 248 249 2 252 251 3 255 252 5 255 249 3 255 245 0 255 245 0 255 252 0 255 254 3 255 255 2 255 255 2 255 
247 8 247 255 0 255 253 2 253 255 0 255 251 4 251 251 4 251 251 4 251 255 0 255 255 0 255 246 9 246 255 0 255 246 9 246 255 0 255 234 21 234 255 0 255 254 0 255 250 0 255 250 0 255 255 2 255 255 5 255 255 16 254 255 11 255 255 6 255 255 4 250 255 0 244 255 0 241 252 0 241 251 0 244 249 0 250 251 0 255 255 1 255 255 2 255 255 4 246 255 2 244 255 4 248 255 0 255 254 1 255 252 0 255 
254 0 255 242 12 245 255 0 251 253 3 248 255 1 255 255 0 255 252 0 251 251 0 251 247 3 255 252 0 255 250 4 255 255 0 255 255 0 253 251 4 249 252 0 255 233 18 240 254 1 255 253 6 255 255 8 255 255 8 255 255 20 253 255 11 255 255 9 253 255 8 245 255 0 244 255 0 241 252 0 243 249 0 244 248 0 250 249 0 253 255 1 255 255 2 255 255 6 246 255 3 246 251 8 244 252 2 255 254 1 255 252 0 255 
244 4 255 252 0 255 254 3 240 255 2 242 255 3 255 248 6 253 247 0 243 242 0 244 242 0 255 245 0 255 252 0 255 255 2 255 254 2 249 253 0 249 248 0 255 251 0 255 255 5 255 255 14 255 255 9 255 255 16 255 255 23 248 255 9 255 255 6 255 255 2 253 251 0 251 245 0 250 242 0 251 242 0 251 245 0 253 249 0 255 255 1 255 255 2 255 254 0 255 241 11 249 254 0 255 244 12 249 255 2 255 251 6 254 
248 0 255 252 0 255 255 0 236 255 0 236 255 5 255 253 7 254 247 0 242 241 0 245 234 5 255 243 4 255 253 6 255 255 7 253 255 4 243 255 0 245 248 0 255 247 0 255 255 3 255 250 19 249 255 8 255 255 7 255 255 6 255 255 5 255 248 11 245 248 5 249 248 0 255 244 0 255 242 0 255 244 0 255 248 0 255 252 0 255 255 2 255 255 2 255 247 1 255 242 3 255 251 0 255 252 2 255 255 1 255 255 2 255 
242 9 255 255 0 251 255 8 216 255 5 221 255 6 250 255 9 253 255 0 248 252 0 255 252 3 255 255 6 255 255 7 255 255 6 253 255 3 241 255 0 241 251 0 253 244 0 255 245 0 255 246 0 255 248 0 255 247 0 255 249 0 255 249 0 255 243 3 249 249 0 253 246 0 250 246 0 252 246 0 252 249 2 254 252 4 255 255 6 255 255 8 255 255 6 255 250 0 255 242 3 253 249 1 255 247 4 252 251 3 254 255 0 255 
254 0 255 255 0 237 255 1 192 255 0 179 255 0 198 255 0 204 255 0 197 255 0 204 255 3 218 255 1 226 255 4 209 255 8 197 255 5 201 255 0 220 255 0 246 244 0 255 236 0 253 240 0 255 240 0 255 230 2 245 234 0 248 242 0 253 245 0 249 249 0 251 254 0 251 255 0 251 255 2 253 255 2 255 255 3 255 255 4 255 255 4 255 255 3 255 255 1 255 253 1 249 255 0 253 254 0 253 254 0 253 244 9 243 
250 6 247 255 2 212 241 23 115 243 24 71 250 22 68 241 27 53 239 20 48 233 20 48 239 16 67 245 15 76 250 18 71 247 23 81 253 16 117 255 2 174 255 0 232 250 0 254 246 0 254 244 0 253 239 0 251 237 0 248 240 0 251 242 0 250 244 0 245 240 12 234 255 1 248 255 4 248 255 5 250 255 5 251 255 3 251 255 1 253 252 0 255 255 0 253 255 13 236 253 19 229 255 3 246 251 7 241 255 0 251 236 14 235 
255 1 255 255 0 211 247 16 92 248 18 31 255 13 18 254 16 0 252 8 0 246 10 0 242 16 0 248 13 8 249 18 5 243 27 23 250 19 78 255 2 156 255 0 230 254 0 255 254 0 255 245 4 247 243 1 248 245 0 251 243 0 248 237 8 236 255 0 244 255 4 243 255 10 243 255 14 243 255 16 243 255 15 243 255 11 243 255 8 244 255 3 244 255 5 243 255 12 237 255 13 237 255 9 241 255 11 237 255 0 248 246 6 242 
254 5 255 255 4 209 238 24 78 245 23 14 255 14 6 255 17 0 255 10 0 254 12 0 255 9 7 255 7 12 255 12 6 253 22 22 255 16 82 255 0 164 255 0 241 254 6 255 255 7 255 255 9 253 255 2 253 255 1 251 245 15 234 254 16 232 255 9 241 255 41 213 255 25 236 255 30 234 255 33 232 255 32 230 255 27 230 255 22 230 255 17 230 255 17 228 255 32 221 255 26 228 255 39 212 255 10 239 255 3 246 255 0 248 
255 2 255 255 0 208 242 17 69 249 17 6 255 10 1 255 17 0 255 14 0 255 20 0 254 22 4 255 16 8 255 19 0 251 25 15 255 17 78 255 0 160 255 0 237 250 6 255 255 5 255 255 5 255 255 6 251 255 2 250 255 9 240 255 8 243 255 32 221 161 176 83 170 201 63 187 208 60 197 213 56 198 213 55 191 209 53 181 204 51 170 198 49 169 197 51 177 203 56 180 190 72 164 177 79 255 27 226 255 8 242 255 1 248 
252 0 244 255 0 193 237 16 50 252 8 0 255 18 0 255 16 0 255 20 5 255 18 16 255 19 24 255 21 18 255 18 5 255 16 22 243 25 63 255 0 156 255 0 220 248 0 255 248 0 255 244 2 255 247 0 255 248 0 252 255 1 248 255 7 241 255 18 236 156 200 59 188 209 58 209 218 51 225 225 47 232 228 42 227 225 40 222 222 37 212 216 35 206 215 40 205 214 52 192 210 61 169 196 68 255 22 236 255 9 243 255 5 244 
251 0 246 255 0 191 235 14 47 251 7 0 255 17 0 255 15 0 255 20 7 255 19 18 255 18 26 255 21 18 255 17 5 255 16 23 242 24 64 255 0 159 254 0 220 247 0 255 243 0 255 245 0 255 247 0 255 246 4 247 255 7 244 255 16 236 255 22 234 178 190 71 200 209 58 223 220 52 240 228 45 247 231 42 247 230 38 243 227 35 236 223 33 228 220 40 223 213 59 199 212 64 164 211 56 255 25 236 255 16 238 255 5 246 
249 0 255 255 0 209 234 15 54 249 7 0 253 16 0 255 14 0 255 17 2 255 16 9 255 15 13 254 18 7 255 15 2 255 15 27 242 27 77 255 0 175 254 0 236 248 0 255 253 2 255 255 3 255 255 3 255 255 14 247 255 10 250 255 17 243 255 36 227 162 213 52 197 214 55 217 223 48 231 229 43 238 232 39 239 232 36 238 231 34 232 228 32 222 224 39 206 220 53 189 212 64 161 209 61 255 24 237 255 12 243 255 5 246 
251 1 255 255 0 211 234 15 56 249 7 0 253 16 0 255 13 0 252 15 0 253 13 4 254 12 3 251 15 0 255 14 0 255 16 29 242 28 82 255 0 181 254 0 237 248 0 255 251 0 255 254 1 255 253 4 255 255 8 251 255 8 250 255 13 244 255 28 228 180 164 95 172 198 64 186 204 58 196 208 53 201 211 51 203 211 49 201 210 48 199 208 46 193 207 51 183 207 62 180 192 81 169 179 87 255 32 227 255 16 239 255 5 246 
254 0 255 255 0 202 237 16 50 249 6 0 253 16 0 255 13 0 251 15 0 252 12 0 253 10 0 250 13 0 254 13 0 255 16 29 242 28 82 255 0 175 255 0 225 245 0 251 237 0 255 235 0 255 238 0 255 242 0 253 243 1 246 245 8 236 255 2 243 243 32 212 255 9 235 255 11 231 255 13 229 255 14 229 255 14 227 255 13 227 255 13 227 255 15 229 255 23 235 255 26 237 255 38 223 255 13 243 255 7 244 255 12 239 
255 1 255 255 0 200 238 16 49 251 7 0 253 17 0 255 14 1 251 15 0 250 11 0 251 9 0 250 13 0 254 13 0 255 16 30 243 29 86 255 0 177 255 0 220 247 0 246 237 0 253 234 0 255 236 0 253 241 0 253 244 0 250 239 6 240 251 0 246 252 0 244 252 0 244 252 0 244 252 0 244 252 0 244 254 0 246 254 0 246 255 0 246 255 0 246 255 5 246 255 7 246 255 6 246 255 12 239 255 5 246 255 14 236 
255 4 255 255 0 205 241 18 54 252 9 4 254 19 2 255 15 6 251 15 2 250 11 0 250 8 0 250 13 0 254 14 2 255 18 37 244 31 93 255 0 184 255 0 223 254 0 246 249 0 251 251 0 253 248 8 245 255 2 251 255 4 251 255 5 251 255 7 248 254 11 243 255 3 251 253 2 253 252 2 255 252 2 255 253 3 255 255 5 255 255 7 255 254 4 255 235 3 246 241 0 250 248 0 250 253 0 247 255 1 246 255 6 243 
255 2 251 255 0 207 237 22 82 247 14 41 246 21 34 251 17 35 244 16 26 245 13 23 246 11 21 243 14 19 249 17 32 249 20 64 239 32 110 255 0 193 255 0 225 255 0 243 251 5 245 255 1 251 255 4 252 255 8 248 255 10 250 255 11 249 255 8 251 255 5 255 255 2 255 255 1 255 254 1 255 254 1 255 255 3 255 255 5 255 255 6 255 255 2 255 236 0 255 233 0 253 232 1 242 247 0 249 255 1 249 255 1 248 
255 0 227 251 4 197 240 13 145 233 20 110 232 22 95 235 20 85 234 19 73 232 20 66 232 20 66 230 20 73 233 22 87 234 21 112 240 17 153 248 9 189 255 0 220 255 0 237 255 0 248 255 0 253 255 1 255 255 2 253 255 2 255 255 2 255 255 2 255 255 1 255 255 1 255 255 0 255 255 0 255 255 1 255 255 1 255 255 1 255 255 2 255 255 1 255 249 0 255 248 0 255 251 0 253 252 0 253 255 0 253 255 0 253 
255 0 227 255 0 220 255 0 206 255 0 193 255 0 182 255 0 170 255 0 161 255 0 156 255 0 158 255 0 165 255 0 177 255 0 191 255 0 209 255 0 223 255 0 234 255 0 244 255 0 251 255 0 255 255 0 255 255 0 255 255 0 255 255 0 255 255 0 255 255 0 255 255 0 255 255 0 255 255 0 255 255 0 255 255 0 255 255 0 255 255 0 255 255 0 255 255 0 255 255 0 255 255 0 255 255 0 255 255 0 255 255 0 255 
255 0 250 254 1 244 254 2 235 255 0 230 255 0 223 255 0 216 255 0 211 255 0 209 255 0 208 255 0 213 255 0 221 255 0 232 255 0 243 255 2 250 255 4 255 253 5 255 255 0 255 255 0 255 255 0 255 255 0 255 255 0 255 255 0 255 255 0 255 255 0 255 255 0 255 255 0 255 255 0 255 255 0 255 255 0 255 255 0 255 255 0 255 255 0 255 255 0 255 255 0 255 255 0 255 255 0 255 255 0 255 255 0 255 
255 2 255 255 1 255 255 1 253 255 0 248 255 1 244 255 0 239 255 3 233 255 6 228 255 7 229 255 5 234 255 5 241 255 1 251 255 3 255 255 3 255 255 5 255 255 4 255 255 1 255 255 0 255 255 0 255 255 0 255 255 0 255 255 0 255 255 0 255 255 0 255 255 0 255 255 0 255 255 0 255 255 0 255 255 0 255 255 0 255 255 0 255 255 0 255 255 0 255 255 0 255 255 0 255 255 0 255 255 0 255 255 0 255 
