P3
38 36
255
255 255 255 255 255 255 255 255 255 255 255 255 255 255 255 255 255 255 255 255 255 255 255 255 255 255 255 255 255 255 255 255 255 255 255 255 255 255 255 255 255 255 255 255 255 255 255 255 255 255 255 255 255 255 255 255 255 255 255 255 255 255 255 255 255 255 255 255 255 255 255 255 255 255 255 255 255 255 255 255 255 255 255 255 255 255 255 255 255 255 255 255 255 255 255 255 255 255 255 255 255 255 255 255 255 255 255 255 255 255 255 255 255 255 
255 255 255 255 255 255 255 255 255 255 255 255 255 255 255 255 255 255 255 255 255 255 255 255 255 255 255 255 255 255 255 255 255 255 255 255 255 255 255 255 255 255 255 254 252 182 180 192 255 255 255 249 255 255 255 255 255 255 255 255 255 212 250 255 235 255 255 250 255 255 250 253 255 255 238 255 255 236 255 255 236 255 255 240 245 255 253 251 255 255 255 255 255 255 255 255 255 246 235 255 255 232 255 245 245 255 255 255 255 252 255 255 255 255 
255 255 255 255 255 255 0 0 0 0 0 0 0 0 0 0 0 0 0 0 0 0 0 0 0 0 0 0 0 0 0 0 0 0 0 0 0 0 0 255 255 255 255 255 255 255 255 255 238 255 249 232 255 241 255 255 255 255 255 255 255 255 255 255 255 255 255 255 255 255 255 255 250 255 249 249 255 242 244 255 244 248 255 242 255 248 252 255 247 255 255 237 255 255 247 255 255 255 255 255 255 255 255 255 255 255 254 255 255 255 255 255 255 255 
255 255 255 255 255 255 0 0 0 15 15 15 42 42 42 0 0 0 20 20 20 0 0 0 0 0 0 0 0 0 0 0 0 0 0 0 0 0 0 255 255 255 255 255 255 255 255 255 252 255 236 255 255 238 250 252 233 227 247 252 238 255 255 222 255 255 238 255 255 199 255 255 255 255 255 243 255 255 237 255 255 241 255 255 255 255 255 255 255 255 255 255 255 255 255 255 210 255 255 158 255 255 255 255 255 235 210 246 255 240 255 255 255 255 
255 255 255 255 255 255 0 0 0 0 0 0 0 0 0 0 0 0 0 0 0 80 80 80 4 4 4 0 0 0 71 71 71 3 3 3 0 0 0 255 255 255 255 255 255 201 203 199 250 251 225 248 255 217 255 255 255 255 255 255 255 255 255 255 255 255 255 255 255 255 255 255 255 255 255 255 255 255 255 255 255 255 255 255 255 255 255 255 255 255 255 255 255 255 255 255 255 255 255 255 255 255 255 255 255 255 255 255 255 255 255 255 255 255 
255 255 255 255 255 255 0 0 0 0 0 0 45 45 45 63 63 63 0 0 0 0 0 0 15 15 15 0 0 0 0 0 0 0 0 0 0 0 0 255 255 255 255 255 255 255 255 255 255 255 245 255 255 253 255 255 255 255 255 255 0 73 83 0 68 71 0 55 98 0 73 140 0 56 125 0 62 127 0 77 122 0 72 114 0 34 111 0 28 115 0 53 120 0 67 114 0 77 97 0 10 29 246 255 255 255 182 246 255 255 255 255 255 255 
255 255 255 255 255 255 0 0 0 0 0 0 0 0 0 0 0 0 0 0 0 15 15 15 0 0 0 7 7 7 0 0 0 18 18 18 0 0 0 255 255 255 254 255 255 252 244 251 251 216 218 255 245 255 255 255 255 255 255 255 0 60 105 0 169 204 0 166 231 25 201 255 15 180 255 5 187 255 0 206 255 0 202 253 47 170 246 47 168 244 0 199 250 0 203 241 0 200 220 0 128 168 255 255 255 255 255 255 255 249 255 255 255 255 
255 255 255 255 255 255 0 0 0 0 0 0 58 58 58 0 0 0 55 55 55 0 0 0 0 0 0 35 35 35 0 0 0 0 0 0 0 0 0 255 255 255 255 255 255 255 255 255 255 254 255 255 251 255 255 228 255 255 255 255 0 70 136 1 243 255 6 199 255 0 165 250 0 178 255 0 179 255 0 200 255 0 201 255 16 163 248 19 165 246 0 197 251 0 209 245 0 173 188 0 89 133 255 255 255 255 243 255 255 252 255 255 255 255 
255 255 255 255 255 255 0 0 0 14 14 14 0 0 0 0 0 0 0 0 0 0 0 0 0 0 0 2 2 2 0 0 0 36 36 36 0 0 0 255 255 255 255 255 255 255 248 246 255 255 255 255 251 255 255 228 255 255 255 255 0 70 136 1 243 255 6 199 255 0 165 250 0 178 255 0 179 255 0 200 255 0 201 255 16 163 248 19 165 246 0 197 251 0 209 245 0 173 188 0 89 133 255 255 255 255 243 255 255 252 255 255 255 255 
255 255 255 255 255 255 0 0 0 16 16 16 0 0 0 0 0 0 28 28 28 24 24 24 13 13 13 0 0 0 32 32 32 4 4 4 0 0 0 255 255 255 255 255 255 255 255 255 250 212 214 255 245 255 255 255 255 255 255 255 0 60 105 0 169 204 0 166 231 25 201 255 15 180 255 5 187 255 0 206 255 0 202 253 47 170 246 47 168 244 0 199 250 0 203 241 0 200 220 0 128 168 255 255 255 255 255 255 255 249 255 255 255 255 
255 255 255 255 255 255 0 0 0 0 0 0 0 0 0 0 0 0 0 0 0 0 0 0 0 0 0 0 0 0 2 2 2 0 0 0 0 0 0 255 255 255 255 255 255 255 255 255 255 255 245 255 255 253 255 255 255 255 255 255 0 73 83 0 68 71 0 55 98 0 73 140 0 56 125 0 62 127 0 77 122 0 72 114 0 34 111 0 28 115 0 53 120 0 67 114 0 77 97 0 10 29 246 255 255 255 182 246 255 255 255 255 255 255 
255 255 255 255 255 255 0 0 0 20 20 20 11 11 11 39 39 39 0 0 0 0 0 0 0 0 0 48 48 48 0 0 0 0 0 0 0 0 0 255 255 255 252 251 255 204 206 202 250 251 225 248 255 217 255 255 255 255 255 255 255 255 255 255 255 255 255 255 255 255 255 255 255 255 255 255 255 255 255 255 255 255 255 255 255 255 255 255 255 255 255 255 255 255 255 255 255 255 255 255 255 255 255 255 255 255 255 255 255 255 255 255 255 255 
255 255 255 255 255 255 0 0 0 0 0 0 0 0 0 0 0 0 0 0 0 0 0 0 0 0 0 0 0 0 0 0 0 0 0 0 0 0 0 255 255 255 255 255 255 255 255 255 252 255 236 255 255 238 250 252 233 227 247 252 238 255 255 222 255 255 238 255 255 199 255 255 255 255 255 243 255 255 237 255 255 241 255 255 255 255 255 255 255 255 255 255 255 255 255 255 210 255 255 158 255 255 255 255 255 235 210 246 255 240 255 255 255 255 
255 255 255 255 255 255 255 255 255 255 255 255 255 255 255 255 255 255 255 255 255 255 255 255 255 255 255 255 255 255 255 255 255 255 255 255 255 255 255 255 255 255 231 229 232 168 169 163 255 255 255 232 255 241 255 255 255 255 255 255 255 255 255 255 255 255 255 255 255 255 255 255 250 255 249 249 255 242 244 255 244 248 255 242 255 248 252 255 247 255 255 237 255 255 247 255 255 255 255 255 255 255 255 255 255 255 254 255 255 255 255 255 255 255 
255 255 255 255 255 255 255 255 255 255 255 255 239 240 239 243 243 243 251 248 252 255 255 255 255 255 255 223 220 220 255 255 255 210 210 210 255 255 255 154 154 156 255 255 255 255 255 255 244 255 255 245 255 255 255 255 255 255 255 255 255 211 252 255 233 255 255 249 255 255 249 251 255 255 235 255 255 232 255 255 230 255 255 237 246 255 249 251 255 255 255 255 255 255 255 255 255 245 230 255 255 225 255 245 242 255 255 255 254 253 255 255 255 255 
255 255 255 194 195 209 255 255 255 245 243 237 255 255 255 255 255 255 255 255 255 255 255 250 235 240 255 255 255 255 236 235 255 255 255 255 255 255 255 255 255 254 255 255 255 154 166 180 255 255 255 251 248 255 255 240 255 255 255 255 255 213 253 255 249 255 255 241 255 255 230 225 255 255 239 255 255 227 255 255 238 252 255 232 248 255 250 242 255 250 255 254 255 255 255 255 255 234 228 255 255 247 239 224 216 255 255 255 255 255 255 255 255 255 
255 255 255 255 255 255 253 242 216 255 254 231 255 254 255 230 235 255 246 255 225 229 255 226 242 255 255 236 255 255 255 255 255 255 254 255 252 251 245 255 255 247 236 255 255 255 255 255 255 248 255 255 224 255 255 255 255 255 222 255 255 191 222 255 255 255 255 255 255 255 255 255 252 255 253 233 255 252 229 255 255 230 255 252 238 255 254 244 255 255 255 255 255 255 250 255 255 255 255 200 206 234 255 255 255 207 201 225 255 255 255 255 255 255 
255 255 255 250 255 255 255 255 233 255 255 226 255 246 255 255 240 255 239 255 220 230 255 229 192 237 255 228 252 255 255 243 255 255 238 255 255 247 227 255 255 237 239 255 255 237 255 255 255 255 255 239 185 225 255 250 255 255 250 255 255 255 255 255 255 255 239 219 217 240 243 239 251 255 255 239 255 255 234 255 255 239 255 255 247 255 255 253 255 255 255 255 255 255 255 255 234 255 255 229 255 255 255 255 255 255 255 255 255 255 255 255 255 255 
255 255 255 255 255 255 255 221 180 255 244 224 255 244 255 255 223 255 255 255 255 255 255 255 255 254 255 255 240 255 255 242 255 255 250 255 255 255 255 255 255 246 253 255 255 233 255 255 244 255 255 247 255 255 252 255 255 253 255 255 255 255 255 255 255 255 224 251 243 255 255 255 233 255 239 239 255 252 238 255 246 248 251 253 253 246 255 255 241 255 255 233 255 255 238 255 251 255 255 216 245 251 250 255 255 229 241 243 244 245 255 255 255 255 
255 255 255 255 255 255 255 255 213 255 255 213 255 255 255 255 255 255 255 255 255 255 255 255 255 255 255 255 255 255 255 255 255 255 253 241 255 255 230 255 255 238 255 255 255 235 255 255 205 255 246 234 255 255 243 255 255 192 245 219 209 255 236 240 255 255 247 255 247 255 255 255 255 255 255 255 255 251 255 252 255 255 255 255 255 253 255 255 249 255 255 250 255 255 251 255 255 255 255 255 255 255 255 255 255 255 255 255 255 255 255 255 255 255 
255 255 255 255 255 250 205 183 8 221 198 0 255 209 0 207 178 0 214 210 0 186 201 0 220 229 0 233 228 8 254 225 0 234 209 0 255 224 51 255 255 145 255 255 255 251 255 255 246 255 255 250 255 255 231 255 251 231 255 242 244 255 255 247 255 255 238 255 248 197 200 183 255 255 255 255 255 248 255 255 255 255 255 255 255 255 253 255 255 255 240 255 255 255 255 255 255 222 206 247 190 177 255 255 255 236 234 218 255 255 255 255 255 255 
255 255 255 255 255 255 253 240 25 250 241 0 255 255 0 255 240 0 255 255 0 249 255 0 222 223 0 249 246 0 249 235 0 216 202 0 244 221 12 255 255 134 255 255 255 255 255 255 255 255 255 229 245 226 231 255 238 247 255 255 248 255 255 191 231 206 255 255 255 255 255 255 255 249 245 255 245 247 255 242 247 255 244 248 255 253 247 255 252 250 255 255 248 255 255 253 255 255 248 255 255 250 255 255 255 255 226 216 255 255 255 255 255 255 
255 255 255 255 255 255 201 195 6 235 213 0 255 248 0 255 227 0 255 255 0 255 244 0 255 255 19 255 255 31 255 255 0 255 225 0 255 233 68 255 255 181 255 255 255 255 238 255 255 240 255 255 228 255 255 255 255 255 255 255 218 206 199 255 215 206 255 255 255 255 255 255 255 255 255 255 255 255 255 255 255 255 255 255 255 255 255 255 255 255 255 255 255 255 255 255 255 255 255 255 255 255 255 255 255 255 255 255 255 255 253 255 255 255 
255 255 255 255 255 255 231 227 3 251 228 0 255 255 0 255 227 0 255 252 0 255 221 0 250 209 0 255 244 6 255 231 0 237 204 0 255 236 70 255 255 165 255 255 255 238 236 255 255 248 255 255 252 255 255 234 242 255 255 255 255 236 225 255 255 255 255 255 255 0 0 0 59 0 0 104 0 0 120 0 0 115 0 0 94 0 0 67 0 0 33 0 0 37 0 0 76 0 0 112 0 0 0 0 0 255 255 255 255 255 247 255 255 255 
255 255 255 255 255 255 201 214 0 255 255 0 255 216 0 255 245 0 255 223 2 255 243 33 255 239 56 255 224 35 255 238 0 255 255 4 208 187 0 255 255 178 255 255 232 240 255 255 250 255 255 225 250 255 241 255 255 237 255 255 255 255 255 255 255 242 255 255 255 0 0 0 205 38 59 222 27 38 247 17 41 255 9 26 243 19 30 247 17 24 226 33 16 216 27 22 227 26 44 207 17 49 70 0 0 255 255 255 255 255 255 255 255 255 
255 255 255 255 255 255 198 223 0 255 255 0 255 226 0 255 247 0 255 226 10 255 232 32 255 239 57 255 224 34 255 240 0 255 247 0 215 203 0 255 255 180 255 255 230 242 255 255 222 255 255 236 255 255 242 255 255 225 255 237 255 251 239 255 228 218 255 255 255 117 0 0 214 43 54 249 33 58 255 20 41 255 18 46 255 20 37 255 26 33 255 31 23 253 30 29 255 56 86 227 41 80 36 0 0 255 255 255 255 226 222 255 255 255 
255 255 255 255 255 255 197 216 0 255 255 0 253 229 0 255 246 0 255 235 0 255 239 8 255 244 20 254 231 2 255 244 0 255 254 4 216 187 37 255 255 222 255 255 255 238 255 255 255 248 255 255 246 255 255 255 255 255 210 232 255 251 255 255 245 255 255 255 255 0 0 0 234 28 53 248 7 32 255 1 30 255 0 23 255 0 20 255 0 19 255 1 8 251 10 19 213 11 41 199 28 61 28 0 0 255 255 255 255 255 255 255 255 255 
255 255 255 255 255 255 195 218 0 255 255 0 255 227 0 255 248 0 246 238 0 252 245 8 255 248 0 242 237 0 255 244 0 255 248 7 216 186 41 255 255 236 255 255 255 242 255 255 255 255 255 255 255 255 255 247 255 255 241 250 255 247 255 255 251 255 255 255 255 68 0 0 42 0 0 90 0 0 107 0 0 113 0 0 119 0 0 110 0 0 114 0 0 106 0 0 81 0 0 104 0 0 0 0 0 255 255 255 255 231 235 255 255 255 
255 255 255 255 255 255 209 212 0 255 255 0 255 227 0 255 248 0 245 235 0 253 244 0 255 251 0 242 241 0 255 246 0 255 248 4 215 188 38 255 255 210 255 255 242 238 255 255 217 255 255 212 255 255 224 255 255 233 255 255 229 255 241 233 237 207 255 255 255 255 255 243 255 255 255 255 255 255 255 255 255 255 255 255 255 255 255 255 255 255 255 255 255 255 255 255 255 255 255 255 255 255 255 255 255 255 255 255 255 255 253 255 255 255 
255 255 255 255 255 255 206 216 0 255 255 0 252 226 0 255 245 0 248 235 0 246 247 0 252 252 0 245 238 0 255 246 0 255 251 0 219 185 48 255 255 220 255 255 229 244 255 255 218 255 255 211 255 255 219 255 255 228 255 255 242 255 255 200 238 217 254 255 255 255 255 255 246 255 246 248 255 248 249 255 248 247 255 246 255 255 255 251 255 255 255 255 255 255 255 254 255 255 255 255 255 251 255 255 255 255 219 213 255 255 255 255 255 255 
255 255 255 255 255 255 223 212 0 255 255 0 255 222 0 255 245 0 255 237 0 254 247 0 253 255 0 253 239 0 255 246 0 255 246 0 228 179 48 255 255 234 255 255 240 255 255 255 252 255 255 255 255 255 243 221 216 255 255 255 255 252 253 255 255 255 255 244 249 253 215 217 255 255 255 251 251 255 249 250 255 249 251 255 249 250 255 255 245 255 255 235 255 255 247 255 189 249 224 234 255 255 255 255 255 255 255 251 255 255 245 255 255 255 
255 255 255 255 255 255 202 190 0 255 255 0 246 222 0 255 242 24 239 239 0 253 248 2 255 255 0 240 246 0 255 240 0 255 243 29 207 163 47 255 255 255 255 255 246 255 255 255 241 231 232 255 255 252 255 253 255 255 233 234 255 230 247 255 225 238 255 240 248 255 252 255 255 255 255 255 255 255 254 254 255 254 255 255 255 250 255 255 245 255 255 241 255 255 255 255 208 255 255 208 255 255 181 250 205 243 255 254 255 252 249 255 255 255 
255 255 255 250 248 186 224 236 130 191 204 76 191 206 64 203 213 52 204 216 27 194 207 12 197 206 12 187 211 28 197 203 41 193 209 65 224 232 145 235 227 156 255 255 215 255 255 230 255 255 254 255 255 255 255 255 255 255 255 252 255 255 255 255 255 255 255 255 255 255 255 255 255 253 255 255 255 255 255 255 255 255 252 255 255 255 255 255 255 255 255 253 255 255 254 255 251 255 255 252 255 255 255 255 255 252 255 255 255 255 255 255 255 255 
255 255 255 255 255 226 255 255 237 255 255 237 255 255 229 255 255 206 255 255 195 255 255 186 255 255 195 255 255 204 255 255 221 255 255 225 255 255 235 255 255 233 255 255 228 255 255 243 255 255 253 255 255 255 255 255 255 255 255 255 255 255 255 255 255 255 255 255 255 255 255 255 255 255 255 255 255 255 255 255 255 255 255 255 255 255 255 255 255 255 255 255 255 255 255 255 255 255 255 255 255 255 255 255 255 255 255 255 255 255 255 255 255 255 
255 255 255 251 253 255 251 247 242 255 255 251 255 255 243 255 255 237 255 255 236 255 255 242 255 255 231 255 255 237 255 255 242 255 255 254 255 255 255 255 252 255 255 247 255 245 238 255 255 255 255 255 255 255 255 255 255 255 255 255 255 255 255 255 255 255 255 255 255 255 255 255 255 255 255 255 255 255 255 255 255 255 255 255 255 255 255 255 255 255 255 255 255 255 255 255 255 255 255 255 255 255 255 255 255 255 255 255 255 255 255 255 255 255 
255 255 255 255 255 255 255 255 255 255 255 255 255 255 255 255 255 255 255 255 255 255 255 255 255 255 255 255 255 255 255 255 255 255 255 255 255 255 255 255 255 255 255 255 255 255 255 255 255 255 255 255 255 255 255 255 255 255 255 255 255 255 255 255 255 255 255 255 255 255 255 255 255 255 255 255 255 255 255 255 255 255 255 255 255 255 255 255 255 255 255 255 255 255 255 255 255 255 255 255 255 255 255 255 255 255 255 255 255 255 255 255 255 255 
